<svg xmlns="http://www.w3.org/2000/svg" viewBox="0 0 1024 1024">
  <defs>
    <linearGradient id="bgB" x1="0" y1="0" x2="0" y2="1">
      <stop offset="0%" stop-color="#07162d"/>
      <stop offset="45%" stop-color="#112d50"/>
      <stop offset="100%" stop-color="#071023"/>
    </linearGradient>
  </defs>
  <rect width="1024" height="1024" fill="url(#bgB)"/>
  <circle cx="90" cy="130" r="1.8" fill="#d8f4ff" opacity="0.85"/>
  <circle cx="210" cy="70" r="2.4" fill="#f0fbff" opacity="0.9"/>
  <circle cx="340" cy="180" r="1.5" fill="#b7dfff" opacity="0.8"/>
  <circle cx="510" cy="100" r="2.0" fill="#d7f0ff" opacity="0.78"/>
  <circle cx="640" cy="170" r="1.6" fill="#bbdeff" opacity="0.84"/>
  <circle cx="810" cy="90" r="2.2" fill="#e7f8ff" opacity="0.76"/>
  <circle cx="930" cy="210" r="1.7" fill="#c8e8ff" opacity="0.78"/>
  <circle cx="130" cy="410" r="1.6" fill="#b8ddff" opacity="0.74"/>
  <circle cx="280" cy="320" r="2.1" fill="#def4ff" opacity="0.82"/>
  <circle cx="420" cy="470" r="1.4" fill="#aed4ff" opacity="0.8"/>
  <circle cx="620" cy="420" r="2.0" fill="#d6efff" opacity="0.76"/>
  <circle cx="780" cy="360" r="1.5" fill="#bedfff" opacity="0.82"/>
  <circle cx="930" cy="500" r="2.2" fill="#eaf9ff" opacity="0.72"/>
  <circle cx="140" cy="740" r="1.7" fill="#c4e6ff" opacity="0.77"/>
  <circle cx="300" cy="840" r="2.2" fill="#e3f6ff" opacity="0.78"/>
  <circle cx="460" cy="700" r="1.5" fill="#a9d2ff" opacity="0.85"/>
  <circle cx="700" cy="860" r="1.8" fill="#d1ecff" opacity="0.8"/>
  <circle cx="880" cy="760" r="2.4" fill="#f2fcff" opacity="0.7"/>
</svg>
